<svg width="19" height="20" viewBox="0 0 19 20" fill="none" xmlns="http://www.w3.org/2000/svg">
<path d="M9.47559 -0.000125358C9.31566 0.0053359 9.16168 0.0617968 9.03613 0.161007L1.92969 5.75964C1.02774 6.47046 0.5 7.55663 0.5 8.70495V18.2499C0.5 18.9317 1.0682 19.4999 1.75 19.4999H6.75C7.4318 19.4999 8 18.9317 8 18.2499V13.2499C8 13.1024 8.10248 12.9999 8.25 12.9999H10.75C10.8975 12.9999 11 13.1024 11 13.2499V18.2499C11 18.9317 11.5682 19.4999 12.25 19.4999H17.25C17.9318 19.4999 18.5 18.9317 18.5 18.2499V8.70495C18.5 7.55663 17.9723 6.47046 17.0703 5.75964L9.96387 0.161007C9.82518 0.0514451 9.65225 -0.00562099 9.47559 -0.000125358Z" fill="#3B3D4F"/>
</svg>
